<?xml version="1.0" encoding="utf-8"?>
<!-- Generator: Adobe Illustrator 17.0.0, SVG Export Plug-In . SVG Version: 6.00 Build 0)  -->
<!DOCTYPE svg PUBLIC "-//W3C//DTD SVG 1.1//EN" "http://www.w3.org/Graphics/SVG/1.1/DTD/svg11.dtd">
<svg version="1.1" id="Layer_1" xmlns="http://www.w3.org/2000/svg" xmlns:xlink="http://www.w3.org/1999/xlink" x="0px" y="0px"
	 width="190.148px" height="172.061px" viewBox="0 0 190.148 172.061" enable-background="new 0 0 190.148 172.061"
	 xml:space="preserve">
<g>
	<defs>
		<rect id="SVGID_1_" width="190.148" height="172.061"/>
	</defs>
	<clipPath id="SVGID_2_">
		<use xlink:href="#SVGID_1_"  overflow="visible"/>
	</clipPath>
	<path clip-path="url(#SVGID_2_)" fill="#f6f6f6" d="M37.877,158.023L4.128,99.568c-4.837-8.377-4.837-18.698,0-27.075
		l33.749-58.455C42.713,5.661,51.652,0.5,61.325,0.5h67.498c9.673,0,18.612,5.161,23.448,13.538l33.75,58.455
		c4.836,8.377,4.836,18.698,0,27.075l-33.75,58.456c-4.836,8.377-13.775,13.537-23.448,13.537H61.325
		C51.652,171.561,42.713,166.4,37.877,158.023"/>
	<path clip-path="url(#SVGID_2_)" fill="#f6f6f6" stroke="#f6f6f6" stroke-miterlimit="10" d="M37.877,158.023L4.128,99.568
		c-4.837-8.377-4.837-18.698,0-27.075l33.749-58.455C42.713,5.661,51.652,0.5,61.325,0.5h67.498c9.673,0,18.612,5.161,23.448,13.538
		l33.75,58.455c4.836,8.377,4.836,18.698,0,27.075l-33.75,58.456c-4.836,8.377-13.775,13.537-23.448,13.537H61.325
		C51.652,171.561,42.713,166.4,37.877,158.023z"/>
</g>
</svg>
