<svg id="rounded-hexagon-gary" xmlns="http://www.w3.org/2000/svg" xmlns:xlink="http://www.w3.org/1999/xlink" width="190.148" height="172.061" viewBox="0 0 190.148 172.061">
  <defs>
    <clipPath id="clip-path">
      <rect id="矩形_1" data-name="矩形 1" width="190.148" height="172.061" fill="#fff"/>
    </clipPath>
  </defs>
  <g id="组_1" data-name="组 1" clip-path="url(#clip-path)">
    <path id="路径_1" data-name="路径 1" d="M37.877,158.023,4.128,99.568a27.073,27.073,0,0,1,0-27.075L37.877,14.038A27.076,27.076,0,0,1,61.325.5h67.5a27.075,27.075,0,0,1,23.448,13.538l33.75,58.455a27.077,27.077,0,0,1,0,27.075l-33.75,58.456a27.075,27.075,0,0,1-23.448,13.537h-67.5a27.076,27.076,0,0,1-23.448-13.538" fill="#fff"/>
  </g>
  <g id="组_2" data-name="组 2" clip-path="url(#clip-path)">
    <path id="路径_2" data-name="路径 2" d="M37.877,158.023,4.128,99.568a27.073,27.073,0,0,1,0-27.075L37.877,14.038A27.076,27.076,0,0,1,61.325.5h67.5a27.075,27.075,0,0,1,23.448,13.538l33.75,58.455a27.077,27.077,0,0,1,0,27.075l-33.75,58.456a27.075,27.075,0,0,1-23.448,13.537h-67.5A27.076,27.076,0,0,1,37.877,158.023Z" fill="#fff" stroke="#fff" stroke-miterlimit="10" stroke-width="1"/>
  </g>
</svg>
